<!--?xml version="1.0" standalone="no"?-->              <svg id="sw-js-blob-svg" viewBox="0 0 100 100" xmlns="http://www.w3.org/2000/svg">                    <defs>                         <linearGradient id="sw-gradient" x1="0" x2="1" y1="1" y2="0">                            <stop id="stop1" stop-color="rgba(71, 116, 232, 1)" offset="0%"></stop>                            <stop id="stop2" stop-color="rgba(212, 37, 227, 1)" offset="100%"></stop>                        </linearGradient>                    </defs>                <path fill="url(#sw-gradient)" d="M25.4,-29.9C33.2,-23.7,40.1,-16,42.2,-7C44.3,2,41.6,12.2,36.3,20.6C31,29,23.2,35.6,14.6,37.8C5.9,40,-3.5,37.8,-12.2,34.3C-20.9,30.8,-28.8,26,-33.5,18.8C-38.1,11.7,-39.6,2.2,-38.1,-6.8C-36.7,-15.9,-32.3,-24.6,-25.4,-31C-18.6,-37.4,-9.3,-41.5,-0.3,-41.2C8.8,-40.9,17.6,-36.1,25.4,-29.9Z" width="100%" height="100%" transform="translate(50 50)" stroke-width="0" style="transition: all 0.3s ease 0s;"></path>              </svg>